KRSPY-WL.ufo
<glyph name="one" format="2">
  <advance width="4854.106106106106"/>
  <unicode hex="0031"/>
  <outline>
    <contour>
      <point x="111.0" y="0.0" type="line" identifier="pm95i83WR5"/>
      <point x="4746.09009009009" y="0.0" type="line" identifier="CURJAw79Zl"/>
      <point x="4746.09009009009" y="7.585585585585585" type="line" identifier="0DUCJo8xIi"/>
      <point x="2432.09009009009" y="7.585585585585585" type="line" identifier="5nmxQXofSG"/>
      <point x="2432.09009009009" y="2000.0" type="line" identifier="4rjIeWbSbx"/>
      <point x="107.0" y="2000.0" type="line" identifier="vk9kU28tLt"/>
      <point x="107.0" y="1992.4144144144145" type="line" identifier="DMCYuZYvI6"/>
      <point x="2425.0" y="1992.4144144144145" type="line" identifier="SYEky1jGwh"/>
      <point x="2425.0" y="7.585585585585585" type="line" identifier="Wxn8RLce8d"/>
      <point x="111.0" y="7.585585585585585" type="line" identifier="nFfYzLbLzr"/>
    </contour>
  </outline>
</glyph>
<glyph name="two" format="2">
  <advance width="4843.212212212212"/>
  <unicode hex="0032"/>
  <outline>
    <contour>
      <point x="107.01601601601601" y="0.0" type="line"/>
      <point x="4736.196196196196" y="0.0" type="line" identifier="pzdvPTirLJ"/>
      <point x="4736.196196196196" y="7.585585585585585" type="line" identifier="91SxUS0iwG"/>
      <point x="4729.106106106106" y="7.585585585585585" type="line" identifier="fP7EN0pUcl"/>
      <point x="4729.106106106106" y="7.585585585585585" type="line" identifier="eb458Bdvng"/>
      <point x="119.11111111111111" y="7.585585585585585" type="line"/>
      <point x="119.10210210210211" y="531.081081081081" type="line" identifier="9fjc25rkUx"/>
      <point x="4731.196196196196" y="1352.855855855856" type="line" identifier="yyb1NCCI5w"/>
      <point x="4731.196196196196" y="2000.0" type="line" identifier="5FogYRSgkk"/>
      <point x="111.01601601601601" y="2000.0" type="line" identifier="svlFvrau4c"/>
      <point x="111.01601601601601" y="1990.6306306306305" type="line" identifier="LQ9fBsTy9K"/>
      <point x="118.10610610610611" y="1990.6306306306305" type="line" identifier="jS6EyIAKtm"/>
      <point x="118.10610610610611" y="1992.4324324324325" type="line"/>
      <point x="4719.101101101101" y="1992.4324324324325" type="line" identifier="N6CMAjhNlU"/>
      <point x="4719.101101101101" y="1358.8008008008007" type="line" identifier="yK1d5IcluK"/>
      <point x="107.007007007007" y="536.6936936936937" type="line" identifier="teVKnpBcVb"/>
    </contour>
  </outline>
</glyph>
<glyph name="three" format="2">
  <advance width="4843.212212212212"/>
  <unicode hex="0033"/>
  <outline>
    <contour>
      <point x="107.01601601601601" y="0.0" type="line" identifier="O9abUc1nmN"/>
      <point x="4736.196196196196" y="0.0" type="line" identifier="kMJYMTfXCq"/>
      <point x="4736.196196196196" y="1001.9009009009009" type="line" identifier="su2XmdS8e8"/>
      <point x="3164.7157157157158" y="1001.9009009009009" type="line" identifier="JQaOzDQqlF"/>
      <point x="3164.7157157157158" y="1003.0" type="line" identifier="VDVZjMY3hd"/>
      <point x="4726.196196196196" y="1408.4594594594594" type="line" identifier="S91TzLL02W"/>
      <point x="4726.196196196196" y="2000.0" type="line" identifier="xg8x2Ki40p"/>
      <point x="110.16616616616616" y="2000.0" type="line" identifier="pE1XSRiy68"/>
      <point x="110.16616616616616" y="1989.7117117117118" type="line" identifier="5lNstGRcSF"/>
      <point x="117.25625625625625" y="1989.7117117117118" type="line" identifier="AcE5xKDZfE"/>
      <point x="117.25625625625625" y="1992.4144144144145" type="line" identifier="7ogBYufWpl"/>
      <point x="4717.604604604605" y="1992.4144144144145" type="line" identifier="RHLvSX2Jv6"/>
      <point x="4717.604604604605" y="1409.6626626626626" type="line" identifier="YUjTrmoWd9"/>
      <point x="3158.512512512513" y="1005.9549549549549" type="line" identifier="n6PdFkeV3V"/>
      <point x="3158.512512512513" y="1002.981981981982" type="line" identifier="iic1IBkDqp"/>
      <point x="1027.7227227227227" y="1002.981981981982" type="line" identifier="lRLJEhXMlO"/>
      <point x="1027.7227227227227" y="997.3783783783783" type="line" identifier="8aKgEELrVU"/>
      <point x="4729.106106106106" y="997.3783783783783" type="line" identifier="Dm8zjmbhNr"/>
      <point x="4729.106106106106" y="7.585585585585585" type="line" identifier="xv9CFHiFgB"/>
      <point x="114.10610610610611" y="7.585585585585585" type="line" identifier="YajKQV3MHP"/>
      <point x="114.10610610610611" y="7.585585585585585" type="line" identifier="36SchVkwze"/>
      <point x="107.01601601601601" y="7.585585585585585" type="line" identifier="tVui9PiOjA"/>
    </contour>
  </outline>
</glyph>
<glyph name="four" format="2">
  <advance width="4862.212212212212"/>
  <unicode hex="0034"/>
  <outline>
    <contour>
      <point x="4211.106106106106" y="0.0" type="line" identifier="h1PQNgm4gW"/>
      <point x="4218.196196196196" y="0.0" type="line" identifier="6L0b4SI9oQ"/>
      <point x="4218.196196196196" y="996.4774774774775" type="line" identifier="RVt2UtvY1a"/>
      <point x="4754.196196196196" y="996.4774774774775" type="line" identifier="Mi9srqpCyt"/>
      <point x="4754.196196196196" y="1003.5225225225225" type="line" identifier="RxPZpzKIWe"/>
      <point x="4218.196196196196" y="1003.5225225225225" type="line" identifier="1otgefJKWP"/>
      <point x="4218.196196196196" y="2000.0" type="line" identifier="E2hoMSUt18"/>
      <point x="4211.106106106106" y="2000.0" type="line" identifier="MWDoApcu8o"/>
      <point x="4211.106106106106" y="1003.5225225225225" type="line" identifier="2lH8kLSnBr"/>
      <point x="115.10610610610611" y="1003.5225225225225" type="line"/>
      <point x="115.10610610610611" y="1401.4594594594594" type="line" identifier="VOGqyfp7jY"/>
      <point x="743.1061061061062" y="2100.0" type="line" identifier="HXMnb7Xc3D"/>
      <point x="735.016016016016" y="2100.0" type="line" identifier="pngk0sP0jF"/>
      <point x="109.01601601601601" y="1402.4594594594594" type="line" identifier="ua24msewC4"/>
      <point x="109.01601601601601" y="996.4774774774775" type="line"/>
      <point x="4211.106106106106" y="996.4774774774775" type="line" identifier="ZU65NpQKC5"/>
    </contour>
  </outline>
</glyph>
<glyph name="six" format="2">
  <advance width="4843.212212212212"/>
  <unicode hex="0036"/>
  <outline>
    <contour>
      <point x="107.01601601601601" y="0.0" type="line" identifier="uiw6aBUf4P"/>
      <point x="4736.196196196196" y="0.0" type="line" identifier="jtYkxiUX6G"/>
      <point x="4736.196196196196" y="1002.7927927927927" type="line" identifier="2G5L37c87I"/>
      <point x="114.10610610610611" y="1002.7927927927927" type="line" identifier="72LiJ3isu1"/>
      <point x="114.10610610610611" y="1556.027027027027" type="line" identifier="6HMSQjpmih"/>
      <point x="736.5385385385385" y="1992.4144144144145" type="line" identifier="13O6KDd4Sw"/>
      <point x="4728.106106106106" y="1992.4144144144145" type="line" identifier="ktdoGwhfdX"/>
      <point x="4728.106106106106" y="1992.4144144144145" type="line" identifier="8ozwOvfWmp"/>
      <point x="4735.196196196196" y="1992.4144144144145" type="line" identifier="Wuidbv6mUe"/>
      <point x="4735.196196196196" y="2000.0" type="line" identifier="oGvEEuxnYv"/>
      <point x="734.016016016016" y="2000.0" type="line" identifier="xR3pEHbMJx"/>
      <point x="107.01601601601601" y="1559.4594594594594" type="line" identifier="KnMArb0tv8"/>
    </contour>
    <contour>
      <point x="4729.0970970970975" y="996.8288288288288" type="line" identifier="RcpK9jxYju"/>
      <point x="4729.106106106106" y="7.585585585585585" type="line" identifier="cJA7J65EsT"/>
      <point x="114.10610610610611" y="7.585585585585585" type="line" identifier="shxfjT5cXU"/>
      <point x="114.0970970970971" y="996.8288288288288" type="line" identifier="K8bSiP0Z1a"/>
    </contour>
  </outline>
</glyph>
<glyph name="seven" format="2">
  <advance width="4842.212212212212"/>
  <unicode hex="0037"/>
  <outline>
    <contour>
      <point x="2422.5945945945946" y="0.0" type="line" identifier="XHkWth7mHz"/>
      <point x="2432.196196196196" y="0.0" type="line" identifier="PiPrv7Kcoy"/>
      <point x="4735.196196196196" y="1621.7837837837837" type="line" identifier="PkvwNC9Tx1"/>
      <point x="4735.196196196196" y="2000.0" type="line" identifier="tgqM27bPOm"/>
      <point x="107.01601601601601" y="2000.0" type="line" identifier="36ml4xRICt"/>
      <point x="107.01601601601601" y="1987.9099099099099" type="line" identifier="aaDZsh5Mah"/>
      <point x="114.10610610610611" y="1987.9099099099099" type="line" identifier="1snwzqpV6g"/>
      <point x="114.10610610610611" y="1992.4144144144145" type="line" identifier="hYQsZbBm6C"/>
      <point x="4725.603603603604" y="1992.4144144144145" type="line" identifier="UfHuo2f68g"/>
      <point x="4725.603603603604" y="1622.7747747747749" type="line" identifier="iDdwCi7JqH"/>
    </contour>
  </outline>
</glyph>
<glyph name="A" format="2">
  <advance width="4843.212212212212"/>
  <unicode hex="0041"/>
  <outline>
    <contour>
      <point x="107.01601601601601" y="0.0" type="line" smooth="yes" identifier="jFq8ta4UUc"/>
      <point x="114.10610610610611" y="0.0" type="line" smooth="yes" identifier="dQz4RxYhG4"/>
      <point x="114.10610610610611" y="996.4774774774775" type="line" smooth="yes" identifier="viYRWe5UN7"/>
      <point x="4729.106106106106" y="996.4774774774775" type="line" smooth="yes" identifier="QVexAlbAcl"/>
      <point x="4729.106106106106" y="0.0" type="line" smooth="yes" identifier="ZgsCdxNJRW"/>
      <point x="4736.196196196196" y="0.0" type="line" smooth="yes" identifier="kpn4Kw9J0C"/>
      <point x="4736.196196196196" y="2000.0" type="line" smooth="yes" identifier="OBZ5Ayed7M"/>
      <point x="742.016016016016" y="2000.0" type="line" smooth="yes" identifier="iDT0uyhKrn"/>
      <point x="107.01601601601601" y="1378.0" type="line" identifier="dqVr87m3uJ"/>
    </contour>
    <contour>
      <point x="114.10610610610611" y="1003.5225225225225" type="line" smooth="yes" identifier="IIRC9Wy7kQ"/>
      <point x="114.10610610610611" y="1375.3513513513512" type="line" smooth="yes" identifier="VufvPdJ075"/>
      <point x="744.3133133133134" y="1992.4144144144145" type="line" smooth="yes" identifier="FsYtJ2vFnp"/>
      <point x="4729.106106106106" y="1992.4144144144145" type="line" smooth="yes" identifier="tUsW8L7b0y"/>
      <point x="4729.106106106106" y="1003.5225225225225" type="line" smooth="yes" identifier="eTe9B4y76W"/>
    </contour>
  </outline>
</glyph>
<glyph name="B" format="2">
  <advance width="4844.212212212212"/>
  <unicode hex="0042"/>
  <outline>
    <contour>
      <point x="107.01601601601601" y="0.0" type="line" identifier="hvY9r8RmLr"/>
      <point x="4737.196196196196" y="0.0" type="line" identifier="9QFpw7nfq7"/>
      <point x="4737.196196196196" y="652.5405405405405" type="line" identifier="543PerILpr"/>
      <point x="4275.196196196196" y="999.005005005005" type="line" identifier="zhomauHW30"/>
      <point x="4275.196196196196" y="1001.005005005005" type="line" identifier="870ZhtaozS"/>
      <point x="4733.196196196196" y="1338.4594594594594" type="line" identifier="eGKH52Jgnk"/>
      <point x="4733.196196196196" y="2000.0" type="line" identifier="FaP204GrdB"/>
      <point x="107.01601601601601" y="2000.0" type="line" identifier="JEev70GAj6"/>
    </contour>
    <contour>
      <point x="114.10610610610611" y="1003.2522522522522" type="line" identifier="By7dfMihfe"/>
      <point x="114.10610610610611" y="1992.4144144144145" type="line" identifier="1p5hKrurVy"/>
      <point x="4726.106106106106" y="1992.4144144144145" type="line" identifier="Qby8aMtF2X"/>
      <point x="4726.106106106106" y="1341.3513513513512" type="line" identifier="9lW01gQyU2"/>
      <point x="4267.106106106106" y="1003.2522522522522" type="line" identifier="xpxyvIzPoc"/>
    </contour>
    <contour>
      <point x="114.10610610610611" y="7.585585585585585" type="line" identifier="jaMSiLrCua"/>
      <point x="114.10610610610611" y="996.7477477477478" type="line" identifier="XSrxNd2axx"/>
      <point x="4267.111111111111" y="996.7477477477478" type="line" identifier="VyYlzRh5nq"/>
      <point x="4730.106106106106" y="649.6486486486486" type="line" identifier="lsRGatjQja"/>
      <point x="4730.106106106106" y="7.585585585585585" type="line" identifier="xhlDJ3CjD5"/>
    </contour>
  </outline>
</glyph>
<glyph name="C" format="2">
  <advance width="4646.015015015015"/>
  <unicode hex="0043"/>
  <outline>
    <contour>
      <point x="107.01601601601601" y="0.0" type="line" identifier="7lPhzTnk2Z"/>
      <point x="4537.092092092092" y="0.0" type="line" identifier="qJVLZGnkwh"/>
      <point x="4537.092092092092" y="7.585585585585585" type="line" identifier="nDnDHzAMXL"/>
      <point x="4530.002002002002" y="7.585585585585585" type="line" identifier="QX1V08aTu0"/>
      <point x="4530.002002002002" y="7.585585585585585" type="line" identifier="Y750RHTvDj"/>
      <point x="114.10610610610611" y="7.585585585585585" type="line" identifier="L2LsGnXiZ2"/>
      <point x="114.10610610610611" y="1377.4774774774776" type="line" identifier="sUWsr03vF4"/>
      <point x="745.0250250250251" y="1992.4144144144145" type="line" identifier="dbOUe6OhxL"/>
      <point x="4529.002002002002" y="1992.4144144144145" type="line" identifier="5BjRbcud80"/>
      <point x="4529.002002002002" y="1988.6306306306305" type="line" identifier="fNVDqwQo2o"/>
      <point x="4536.092092092092" y="1988.6306306306305" type="line" identifier="wLqQQx7QVN"/>
      <point x="4536.092092092092" y="2000.0" type="line" identifier="9eJelv8BOw"/>
      <point x="742.016016016016" y="2000.0" type="line" identifier="lfZev3ICaC"/>
      <point x="107.01601601601601" y="1381.0" type="line" identifier="V1EWIdPahq"/>
    </contour>
  </outline>
</glyph>
<glyph name="D" format="2">
  <advance width="4847.212212212212"/>
  <unicode hex="0044"/>
  <outline>
    <contour>
      <point x="107.01601601601601" y="0.0" type="line" identifier="gh4oopoKIn"/>
      <point x="4740.196196196196" y="0.0" type="line" identifier="wIy2omw5Da"/>
      <point x="4740.196196196196" y="1443.6216216216217" type="line" identifier="ydeACnPZN4"/>
      <point x="4092.8988988988986" y="2000.0" type="line" identifier="IF8msvcgce"/>
      <point x="107.01601601601601" y="2000.0" type="line" identifier="hTYdJwlqIh"/>
    </contour>
    <contour>
      <point x="114.10610610610611" y="1992.4144144144145" type="line" identifier="YShvMHvurg"/>
      <point x="4089.214214214214" y="1992.4144144144145" type="line" identifier="DiLdvAK6bW"/>
      <point x="4733.106106106106" y="1439.6126126126126" type="line" identifier="5OFemp6E2Y"/>
      <point x="4733.106106106106" y="7.585585585585585" type="line" identifier="4w8cXO1HlF"/>
      <point x="114.10610610610611" y="7.585585585585585" type="line" identifier="OGdfzPVlic"/>
    </contour>
  </outline>
</glyph>
<glyph name="G" format="2">
  <advance width="4843.212212212212"/>
  <unicode hex="0047"/>
  <outline>
    <contour>
      <point x="107.01601601601601" y="0.0" type="line" identifier="7lPhzTnk2Z"/>
      <point x="4736.196196196196" y="0.0" type="line" identifier="V1EWIdPahq"/>
      <point x="4736.196196196196" y="1002.4414414414415" type="line" identifier="lfZev3ICaC"/>
      <point x="3149.4464464464463" y="1002.4414414414415" type="line" identifier="9eJelv8BOw"/>
      <point x="3149.4464464464463" y="996.4774774774775" type="line" identifier="wLqQQx7QVN"/>
      <point x="4729.106106106106" y="996.4774774774775" type="line" identifier="fNVDqwQo2o"/>
      <point x="4729.106106106106" y="7.585585585585585" type="line" identifier="5BjRbcud80"/>
      <point x="114.10610610610611" y="7.585585585585585" type="line" identifier="dbOUe6OhxL"/>
      <point x="114.10610610610611" y="1377.972972972973" type="line" identifier="sUWsr03vF4"/>
      <point x="745.5925925925926" y="1992.4144144144145" type="line" identifier="L2LsGnXiZ2"/>
      <point x="4728.106106106106" y="1992.4144144144145" type="line" identifier="Y750RHTvDj"/>
      <point x="4728.111111111111" y="1370.6626626626628" type="line" identifier="4m6dHLVhZq"/>
      <point x="4735.201201201201" y="1370.6626626626628" type="line" identifier="EARaY3Su65"/>
      <point x="4735.196196196196" y="2000.0" type="line" identifier="qcvimxjndX"/>
      <point x="742.016016016016" y="2000.0" type="line" identifier="uek1NNj7De"/>
      <point x="107.01601601601601" y="1381.0" type="line" identifier="qJVLZGnkwh"/>
    </contour>
  </outline>
</glyph>
<glyph name="H" format="2">
  <advance width="4843.212212212212"/>
  <unicode hex="0048"/>
  <outline>
    <contour>
      <point x="107.01601601601601" y="0.0" type="line" identifier="uqAJBjDIOT"/>
      <point x="114.10610610610611" y="0.0" type="line" identifier="WUaPOcaxKT"/>
      <point x="114.10610610610611" y="996.8378378378378" type="line" identifier="QjywsYY2yB"/>
      <point x="4729.106106106106" y="996.8378378378378" type="line" identifier="7JgTtdb0jg"/>
      <point x="4729.106106106106" y="0.0" type="line" identifier="njzlIRBsoY"/>
      <point x="4736.196196196196" y="0.0" type="line" identifier="oOtn61SmRY"/>
      <point x="4736.196196196196" y="2000.0" type="line" identifier="8OglXgblhr"/>
      <point x="4729.106106106106" y="2000.0" type="line" identifier="db0bPhBdaU"/>
      <point x="4729.0970970970975" y="1003.1621621621622" type="line" identifier="MTAeavIVWY"/>
      <point x="114.0970970970971" y="1003.1621621621622" type="line" identifier="lggLiivmLt"/>
      <point x="114.10610610610611" y="2000.0" type="line" identifier="UPaHY3UudR"/>
      <point x="107.01601601601601" y="2000.0" type="line" identifier="ZnCDQVdtyD"/>
    </contour>
  </outline>
</glyph>
<glyph name="I" format="2">
  <advance width="4270.106106106106"/>
  <unicode hex="0049"/>
  <outline>
    <contour>
      <point x="97.05305305305305" y="0.0" type="line" identifier="u8XZE2STzL"/>
      <point x="4173.053053053053" y="0.0" type="line" identifier="1Ty0JfMohF"/>
      <point x="4173.053053053053" y="7.585585585585585" type="line" identifier="quzaPWszgr"/>
      <point x="2138.6006006006005" y="7.585585585585585" type="line" identifier="1m237t4hyw"/>
      <point x="2138.6006006006005" y="1992.4144144144145" type="line" identifier="v7N4yg5XNk"/>
      <point x="4173.053053053053" y="1992.4144144144145" type="line" identifier="9RiQmr3G8U"/>
      <point x="4173.053053053053" y="2000.0" type="line" identifier="jZjJqwR81q"/>
      <point x="97.05305305305305" y="2000.0" type="line" identifier="PL3Zqx19x8"/>
      <point x="97.05305305305305" y="1992.4144144144145" type="line" identifier="O5ZoWKLuW7"/>
      <point x="2131.5105105105104" y="1992.4144144144145" type="line" identifier="zfocDyDTCM"/>
      <point x="2131.5105105105104" y="7.585585585585585" type="line" identifier="S4rO5KuHiL"/>
      <point x="97.05305305305305" y="7.585585585585585" type="line" identifier="aCoxe3fSmw"/>
    </contour>
  </outline>
</glyph>
<glyph name="J" format="2">
  <advance width="4373.212212212212"/>
  <unicode hex="004A"/>
  <outline>
    <contour>
      <point x="320.1991991991992" y="0.0" type="line" identifier="jiO9eX9U07"/>
      <point x="4276.196196196196" y="0.0" type="line" identifier="wgpFs1yguc"/>
      <point x="4276.196196196196" y="2000.0" type="line" identifier="d5Di3vNzni"/>
      <point x="100.6016016016016" y="2000.0" type="line" identifier="TbrXnCyMEi"/>
      <point x="100.6016016016016" y="1992.4144144144145" type="line" identifier="AdYfGKx8QJ"/>
      <point x="4269.106106106106" y="1992.4144144144145" type="line" identifier="46RrD1WET2"/>
      <point x="4269.106106106106" y="7.585585585585585" type="line" identifier="zFXsE8BUYG"/>
      <point x="325.4424424424424" y="7.585585585585585" type="line" identifier="NQmE31PUns"/>
      <point x="102.25025025025025" y="586.4504504504505" type="line" identifier="qiXxY6YhCq"/>
      <point x="95.16016016016016" y="586.4504504504505" type="line" identifier="7exNZv1XSc"/>
    </contour>
  </outline>
</glyph>
<glyph name="O" format="2">
  <advance width="4846.212212212212"/>
  <unicode hex="004F"/>
  <outline>
    <contour>
      <point x="4788.522522522522" y="609.027027027027" type="line" identifier="ob8US3C311"/>
      <point x="4788.522522522522" y="2000.027027027027" type="line" identifier="c9brEFyXXA"/>
      <point x="679.7167167167167" y="2000.0" type="line" identifier="a4Ql951bxG"/>
      <point x="57.71671671671672" y="1381.0" type="line" identifier="kbL68Qh2zr"/>
      <point x="57.71671671671672" y="0.0" type="line" identifier="U6WibAQAUl"/>
      <point x="4167.522522522522" y="0.02702702702702703" type="line" identifier="dfgNHTgBfR"/>
    </contour>
    <contour>
      <point x="4781.4324324324325" y="613.8108108108108" type="line" identifier="SnrsQD5TLy"/>
      <point x="4163.504504504504" y="7.585585585585585" type="line" identifier="jjd5iRDXWT"/>
      <point x="64.8068068068068" y="7.585585585585585" type="line" identifier="YbQKHpAtYn"/>
      <point x="64.8068068068068" y="1376.2252252252251" type="line" identifier="vdfGLkskOQ"/>
      <point x="684.0770770770771" y="1992.4414414414414" type="line" identifier="qXlVxK5ShE"/>
      <point x="4781.4324324324325" y="1992.4414414414414" type="line" identifier="g70r2r6DwY"/>
    </contour>
  </outline>
</glyph>
<glyph name="P" format="2">
  <advance width="4838.212212212212"/>
  <unicode hex="0050"/>
  <outline>
    <contour>
      <point x="107.01601601601601" y="0.0" type="line" identifier="EG08jqU5fb"/>
      <point x="114.10610610610611" y="0.0" type="line" identifier="osRzIFK2Cu"/>
      <point x="114.10610610610611" y="756.4674674674675" type="line" identifier="hIFVovVRwe"/>
      <point x="4433.798798798799" y="1041.099099099099" type="line" identifier="Tt6D8zYZmU"/>
      <point x="4433.798798798799" y="2000.0" type="line" identifier="6xW04auDFu"/>
      <point x="107.01601601601601" y="2000.0" type="line" identifier="eETO5GBD5v"/>
    </contour>
    <contour>
      <point x="114.10610610610611" y="763.5125125125124" type="line" identifier="PIBVN1PGv1"/>
      <point x="114.10610610610611" y="1992.4144144144145" type="line" identifier="IZIZQr2gYJ"/>
      <point x="4426.708708708708" y="1992.4144144144145" type="line" identifier="2c4LCF1E1R"/>
      <point x="4426.708708708708" y="1046.8688688688687" type="line" identifier="1WCnzth1GX"/>
    </contour>
  </outline>
</glyph>
<glyph name="Q" format="2">
  <advance width="4846.212212212212"/>
  <unicode hex="0051"/>
  <outline>
    <contour>
      <point x="4788.495495495496" y="2000.018018018018" type="line"/>
      <point x="679.7167167167167" y="2000.018018018018" type="line"/>
      <point x="57.71671671671672" y="1556.4234234234234" type="line"/>
      <point x="57.71671671671672" y="0.018018018018018018" type="line"/>
      <point x="4788.495495495496" y="0.018018018018018018" type="line"/>
    </contour>
    <contour>
      <point x="4781.405405405406" y="7.603603603603603" type="line"/>
      <point x="64.8068068068068" y="7.603603603603603" type="line"/>
      <point x="64.8068068068068" y="1553.6706706706707" type="line"/>
      <point x="684.0" y="1992.4324324324325" type="line"/>
      <point x="4781.405405405406" y="1992.4324324324325" type="line"/>
    </contour>
    <contour>
      <point x="2423.77977977978" y="-270.7927927927928" type="line"/>
      <point x="2430.86986986987" y="-270.7927927927928" type="line"/>
      <point x="2430.86986986987" y="2.0" type="line"/>
      <point x="2423.77977977978" y="2.0" type="line"/>
    </contour>
  </outline>
</glyph>
<glyph name="R" format="2">
  <advance width="4844.212212212212"/>
  <unicode hex="0052"/>
  <outline>
    <contour>
      <point x="64.8068068068068" y="1002.981981981982" type="line"/>
      <point x="64.8068068068068" y="1992.4144144144145" type="line"/>
      <point x="4775.405405405406" y="1992.4144144144145" type="line" identifier="QaiEgJY5YB"/>
      <point x="4775.405405405406" y="1340.4554554554554" type="line" identifier="6IplHHtaia"/>
      <point x="4316.405405405406" y="1002.981981981982" type="line" identifier="FBYYZ75jLF"/>
    </contour>
    <contour>
      <point x="4786.495495495496" y="0.0" type="line" identifier="zogmfDP5uI"/>
      <point x="4786.495495495496" y="652.5405405405405" type="line" identifier="pOQlJmtZqr"/>
      <point x="4324.495495495496" y="999.985985985986" type="line" identifier="29lGC3ccMg"/>
      <point x="4324.495495495496" y="1001.985985985986" type="line" identifier="oU4gee8755"/>
      <point x="4782.495495495496" y="1338.4594594594594" type="line" identifier="uosGYAPVCm"/>
      <point x="4782.495495495496" y="2000.0" type="line" identifier="aLkBCz4b1d"/>
      <point x="57.71671671671672" y="2000.0" type="line"/>
      <point x="57.71671671671672" y="0.0" type="line"/>
      <point x="64.8068068068068" y="0.0" type="line"/>
      <point x="64.8068068068068" y="997.018018018018" type="line"/>
      <point x="4317.391391391392" y="997.018018018018" type="line" identifier="Xd603Ktc2M"/>
      <point x="4779.405405405406" y="649.4684684684685" type="line" identifier="tF4mrDIIPp"/>
      <point x="4779.405405405406" y="0.0" type="line" identifier="HFi4ygyPle"/>
    </contour>
  </outline>
</glyph>
<glyph name="S" format="2">
  <advance width="4833.709709709709"/>
  <unicode hex="0053"/>
  <outline>
    <contour>
      <point x="59.71671671671672" y="0.0" type="line" identifier="09VlJ0BjUX"/>
      <point x="4775.992992992993" y="0.0" type="line" identifier="EagWihqFM8"/>
      <point x="4775.992992992993" y="1029.886886886887" type="line" identifier="KfNuQA7eZe"/>
      <point x="94.73973973973973" y="1029.886886886887" type="line" identifier="At364YZFEy"/>
      <point x="94.73973973973973" y="1992.4144144144145" type="line" identifier="BcuLfvaQKC"/>
      <point x="4768.902902902903" y="1992.4144144144145" type="line" identifier="3ZUkG35meB"/>
      <point x="4768.902902902903" y="1992.4144144144145" type="line" identifier="DTOJhFIl15"/>
      <point x="4775.912912912913" y="1992.4144144144145" type="line" identifier="9KDcrfQ5Ui"/>
      <point x="4775.912912912913" y="2000.0" type="line" identifier="SaF9ojRFrW"/>
      <point x="87.64964964964965" y="2000.0" type="line" identifier="F4sQEYelA8"/>
      <point x="87.64964964964965" y="1023.7427427427427" type="line" identifier="3sQ8t8BZ6b"/>
      <point x="4768.902902902903" y="1023.7427427427427" type="line" identifier="yiV6OCBLHg"/>
      <point x="4768.902902902903" y="7.585585585585585" type="line" identifier="9kdl9SYsn8"/>
      <point x="66.8068068068068" y="7.585585585585585" type="line" identifier="yZDWuX8LLe"/>
      <point x="66.8068068068068" y="7.585585585585585" type="line" identifier="jYb9001DTm"/>
      <point x="59.71671671671672" y="7.585585585585585" type="line" identifier="ho4DrS0rdW"/>
    </contour>
  </outline>
</glyph>
<glyph name="U" format="2">
  <advance width="4843.212212212212"/>
  <unicode hex="0055"/>
  <outline>
    <contour>
      <point x="4729.106106106106" y="2000.0" type="line" smooth="yes" identifier="sHbJc0ABCr"/>
      <point x="4729.106106106106" y="7.585585585585585" type="line" identifier="rl1GTsia1n"/>
      <point x="746.5835835835836" y="7.585585585585585" type="line" smooth="yes" identifier="UzF1yMyYbs"/>
      <point x="114.10610610610611" y="625.8738738738739" type="line" smooth="yes" identifier="JI2e3WjmaS"/>
      <point x="114.10610610610611" y="2000.0" type="line"/>
      <point x="107.01601601601601" y="2000.0" type="line" smooth="yes"/>
      <point x="107.01601601601601" y="623.0" type="line" smooth="yes" identifier="ephNOl5vKR"/>
      <point x="742.016016016016" y="0.0" type="line" smooth="yes" identifier="TtJBDxLtac"/>
      <point x="4736.196196196196" y="0.0" type="line" smooth="yes" identifier="v8mYloy7Gu"/>
      <point x="4736.196196196196" y="2000.0" type="line" smooth="yes" identifier="eQnUhxJAi8"/>
    </contour>
  </outline>
</glyph>
<glyph name="Y" format="2">
  <advance width="4842.212212212212"/>
  <unicode hex="0059"/>
  <outline>
    <contour>
      <point x="2418.5585585585586" y="-1.971971971971972" type="line" identifier="XKjckKJ7m9"/>
      <point x="2425.6486486486488" y="0.0" type="line" identifier="WihjL321cU"/>
      <point x="2425.6486486486488" y="854.7187187187187" type="line" identifier="rvzWMWl6O1"/>
      <point x="4735.196196196196" y="1177.018018018018" type="line" identifier="YbKEFhFR3q"/>
      <point x="4735.196196196196" y="2039.6396396396397" type="line" identifier="wnC8PudY2b"/>
      <point x="4728.106106106106" y="2039.6396396396397" type="line" identifier="spI4xe8t4f"/>
      <point x="4728.106106106106" y="1182.5865865865867" type="line" identifier="Jw55i2s2Mm"/>
      <point x="2424.1471471471473" y="862.6136136136137" type="line" identifier="9ncbEH2hEb"/>
      <point x="2420.06006006006" y="862.6136136136137" type="line" identifier="u7HFbTQwMo"/>
      <point x="114.10610610610611" y="1182.5865865865867" type="line" identifier="oy8ifCCtGL"/>
      <point x="114.10610610610611" y="2039.6396396396397" type="line" identifier="ah5yat5gKV"/>
      <point x="107.01601601601601" y="2039.6396396396397" type="line" identifier="fJXhpKV79E"/>
      <point x="107.01601601601601" y="1177.018018018018" type="line" identifier="k3vH9oxqcN"/>
      <point x="2418.5585585585586" y="854.7187187187187" type="line" identifier="3Kveia3O9h"/>
    </contour>
  </outline>
</glyph>
